<?xml version="1.0" encoding="UTF-8"?><svg id="Livello_2" xmlns="http://www.w3.org/2000/svg" viewBox="0 0 301.3 84.61"><defs><style>.cls-1{fill:#eeadff;}.cls-2{fill:#fff;}.cls-3{fill:#461fa2;}</style></defs><g id="Livello_1-2"><g><path class="cls-3" d="M293.86,59.25v8.5h-7.56v8.36h-15v8.5H37.67v-8.5h-15v-8.36h-7.44v-8.5H7.67v-26.03h7.56v-8.36h7.44v-8.5h15V8h233.64v8.36h15v8.5h7.56v8.36h7.44v26.03h-7.44Z"/><path class="cls-1" d="M285.47,26.03h-7.44v-8.5h-15V9.17H30.72v8.36H15.72v8.5h-7.56v24.54h7.56v8.36h15v8.5h232.32v-8.5h15v-8.36h7.44V26.03Z"/><path class="cls-3" d="M286.19,51.25v8.5h-7.56v8.36h-15v8.5H30v-8.5H15v-8.36H7.56v-8.5H0V25.22H7.56v-8.36h7.44V8.36h15V0h233.64V8.36h15v8.5h7.56v8.36h7.44v26.03h-7.44Zm-.72-25.22h-7.44v-8.5h-15V9.17H30.72v8.36H15.72v8.5h-7.56v24.54h7.56v8.36h15v8.5h232.32v-8.5h15v-8.36h7.44V26.03Z"/><g><path class="cls-2" d="M74.48,57.38v-7.56h-14.4v7.56h-8.16V19.22h23.16v7.44h7.56v15.72h-7.56v6.84h7.56v8.16h-8.16Zm0-30h-14.4v14.28h14.4v-14.28Z"/><path class="cls-2" d="M90.08,57.38V19.22h23.16v8.16h-15v6.84h15v8.16h-15v6.84h15v8.16h-23.16Z"/><path class="cls-2" d="M143.96,27.38v30h-8.16V27.38h-15v-8.16h38.16v8.16h-15Z"/><path class="cls-2" d="M189.07,57.38v-7.56h-14.4v7.56h-8.16V19.22h23.16v7.44h7.56v15.72h-7.56v6.84h7.56v8.16h-8.16Zm0-30h-14.4v14.28h14.4v-14.28Z"/><path class="cls-2" d="M235.39,34.82v7.56h-7.56v15h-8.16v-15h-7.44v-7.56h-7.56v-15.6h8.16v15h7.56v7.44h6.84v-7.44h7.44v-15h8.16v15.6h-7.44Z"/></g></g></g></svg>