<?xml version="1.0" encoding="UTF-8"?><svg xmlns="http://www.w3.org/2000/svg" viewBox="0 0 294.71 85.61"><defs><style>.cls-1{fill:#fff;}.cls-2{fill:#461fa2;}.cls-3{fill:#ce9ff7;mix-blend-mode:hard-light;}.cls-4{isolation:isolate;}</style></defs><g class="cls-4"><g id="Livello_2"><g id="Livello_1-2"><g><path class="cls-2" d="M287.27,60.25v8.5h-7.56v8.36h-15v8.5H37.08v-8.5h-15v-8.36h-7.44v-8.5H7.08v-26.03h7.56v-8.36h7.44v-8.5h15V9h227.64v8.36h15v8.5h7.56v8.36h7.44v26.03h-7.44Z"/><path class="cls-3" d="M271.47,25.87h-7.06v-8.65h-14.24V8.7H29.58v8.51H15.34v8.65h-7.18v24.99h7.18v8.51h14.24v8.65H250.17v-8.65h14.24v-8.51h7.06V25.87Z"/><path class="cls-2" d="M272.19,51.25v8.5h-7.56v8.36h-15v8.5H30v-8.5H15v-8.36H7.56v-8.5H0V25.22H7.56v-8.36h7.44V8.36h15V0H249.63V8.36h15v8.5h7.56v8.36h7.44v26.03h-7.44Zm-.72-25.22h-7.44v-8.5h-15V9.17H30.72v8.36H15.72v8.5h-7.56v24.54h7.56v8.36h15v8.5H249.03v-8.5h15v-8.36h7.44V26.03Z"/><g><path class="cls-1" d="M90.38,49.82v7.56h-23.16v-8.16h22.56v-6.84h-15v-7.56h-7.56v-8.16h7.56v-7.44h23.16v8.16h-22.56v6.84h15v7.44h7.56v8.16h-7.56Z"/><path class="cls-1" d="M127.94,57.38v-15h-7.56v-7.56h-6.84v22.56h-8.16V19.22h8.16v7.44h7.56v7.56h6.84v-15h8.16V57.38h-8.16Z"/><path class="cls-1" d="M143.54,57.38V26.66h7.56v-7.44h15.6v7.44h7.56v30.72h-8.16v-7.56h-14.4v7.56h-8.16Zm8.16-15.72h14.4v-14.28h-14.4v14.28Z"/><path class="cls-1" d="M204.85,42.38v7.44h-15v7.56h-8.16V19.22h23.16v7.44h7.56v15.72h-7.56Zm-.6-15h-14.4v14.28h14.4v-14.28Z"/></g><path class="cls-2" d="M272.19,51.25v8.5h-7.56v8.36h-15v8.5H30v-8.5H15v-8.36H7.56v-8.5H0V25.22H7.56v-8.36h7.44V8.36h15V0H249.63V8.36h15v8.5h7.56v8.36h7.44v26.03h-7.44Zm-.72-25.22h-7.44v-8.5h-15V9.17H30.72v8.36H15.72v8.5h-7.56v24.54h7.56v8.36h15v8.5H249.03v-8.5h15v-8.36h7.44V26.03Z"/></g></g></g></g></svg>